<?xml version="1.0" standalone="no"?>
<!DOCTYPE svg PUBLIC "-//W3C//DTD SVG 20010904//EN"
 "http://www.w3.org/TR/2001/REC-SVG-20010904/DTD/svg10.dtd">
<svg version="1.0" xmlns="http://www.w3.org/2000/svg"
 width="512.000000pt" height="512.000000pt" viewBox="0 0 512.000000 512.000000"
 preserveAspectRatio="xMidYMid meet">

<g transform="translate(0.000000,512.000000) scale(0.100000,-0.100000)"
fill="#000000" stroke="none">
<path d="M910 4970 l0 -150 -300 0 -300 0 0 -45 c0 -74 30 -252 65 -391 110
-428 332 -808 653 -1116 90 -85 128 -130 157 -183 92 -167 214 -338 339 -472
32 -35 55 -63 51 -63 -3 0 -65 30 -136 66 -646 328 -1142 933 -1337 1629 -49
173 -75 319 -95 535 -2 19 -5 -1048 -5 -2372 l-2 -2408 555 0 555 0 0 150 0
150 150 0 150 0 0 600 0 600 425 0 425 0 0 289 0 289 93 -38 c52 -21 119 -46
150 -56 55 -17 59 -17 114 0 31 10 98 35 150 56 l93 38 0 -289 0 -289 425 0
425 0 0 -600 0 -600 150 0 150 0 0 -150 0 -150 555 0 555 0 -2 2413 c-1 1326
-3 2390 -5 2362 -2 -27 -10 -102 -19 -165 -99 -743 -522 -1420 -1149 -1840
-117 -78 -375 -220 -401 -220 -3 0 28 36 68 81 107 118 203 250 287 396 66
114 87 140 183 232 328 313 553 694 663 1125 35 139 65 317 65 391 l0 45 -300
0 -300 0 0 150 0 150 -149 0 -150 0 -4 -587 c-4 -643 -7 -671 -72 -898 -173
-604 -616 -1093 -1200 -1325 l-75 -30 -77 31 c-587 233 -1044 743 -1203 1343
-62 234 -63 249 -67 884 l-4 582 -150 0 -149 0 0 -150z"/>
<path d="M2110 850 l0 -150 450 0 450 0 0 150 0 150 -450 0 -450 0 0 -150z"/>
</g>
</svg>
