<svg width="45" height="45" viewBox="0 0 45 45" fill="none" xmlns="http://www.w3.org/2000/svg">
<mask id="mask0_179_96" style="mask-type:alpha" maskUnits="userSpaceOnUse" x="0" y="0" width="45" height="45">
<rect width="45" height="45" fill="#D9D9D9"/>
</mask>
<g mask="url(#mask0_179_96)">
<path d="M19.8749 30C19.8749 27.4688 20.1015 25.6484 20.5546 24.5391C21.0078 23.4297 21.9687 22.2188 23.4374 20.9063C24.7187 19.7813 25.6953 18.8047 26.3671 17.9766C27.039 17.1484 27.3749 16.2031 27.3749 15.1406C27.3749 13.8594 26.9453 12.7969 26.0859 11.9531C25.2265 11.1094 24.0312 10.6875 22.4999 10.6875C20.9062 10.6875 19.6953 11.1719 18.8671 12.1406C18.039 13.1094 17.4531 14.0938 17.1093 15.0938L12.2812 13.0312C12.9374 11.0312 14.1406 9.29688 15.8906 7.82813C17.6406 6.35938 19.8437 5.625 22.4999 5.625C25.7812 5.625 28.3046 6.53906 30.0703 8.36719C31.8359 10.1953 32.7187 12.3906 32.7187 14.9531C32.7187 16.5156 32.3828 17.8516 31.7109 18.9609C31.039 20.0703 29.9843 21.3281 28.5468 22.7344C27.0156 24.2031 26.0859 25.3203 25.7578 26.0859C25.4296 26.8516 25.2656 28.1562 25.2656 30H19.8749ZM22.4999 41.25C21.4687 41.25 20.5859 40.8828 19.8515 40.1484C19.1171 39.4141 18.7499 38.5312 18.7499 37.5C18.7499 36.4688 19.1171 35.5859 19.8515 34.8516C20.5859 34.1172 21.4687 33.75 22.4999 33.75C23.5312 33.75 24.414 34.1172 25.1484 34.8516C25.8828 35.5859 26.2499 36.4688 26.2499 37.5C26.2499 38.5312 25.8828 39.4141 25.1484 40.1484C24.414 40.8828 23.5312 41.25 22.4999 41.25Z" fill="white"/>
<path d="M28.125 27L-536.062 1192.5" stroke="black"/>
</g>
</svg>
